/* XPM */
static char * image_toolbox_frame[] = {
"28 28 2 1",
" 	c None",
".	c #969090",
"............................",
"............................",
"..                        ..",
"..                        ..",
"..                        ..",
"..                        ..",
"..                        ..",
"..                        ..",
"..                        ..",
"..                        ..",
"..                        ..",
"..                        ..",
"..                        ..",
"..                        ..",
"..                        ..",
"..                        ..",
"..                        ..",
"..                        ..",
"..                        ..",
"..                        ..",
"..                        ..",
"..                        ..",
"..                        ..",
"..                        ..",
"..                        ..",
"..                        ..",
"............................",
"............................"};
