/* XPM */
static char * image_tools[] = {
"95 24 694 2",
"  	c None",
". 	c #000000",
"+ 	c #716F70",
"@ 	c #828285",
"# 	c #C7CDD3",
"$ 	c #D6DAE1",
"% 	c #D7DBE2",
"& 	c #D8DBE2",
"* 	c #D8DDE4",
"= 	c #D9DEE4",
"- 	c #DCE0E5",
"; 	c #DCE0E7",
"> 	c #DDE0E6",
", 	c #DCDFE5",
"' 	c #DCDFE3",
") 	c #DCDEE2",
"! 	c #DCDEE1",
"~ 	c #CDD1D5",
"{ 	c #818183",
"] 	c #6E6D6E",
"^ 	c #2C83B4",
"/ 	c #2784B9",
"( 	c #4A4949",
"_ 	c #535252",
": 	c #828284",
"< 	c #DAE1E8",
"[ 	c #EDF1F8",
"} 	c #ECF0F7",
"| 	c #EDF0F7",
"1 	c #EDF2F8",
"2 	c #EEF2F9",
"3 	c #EFF3F9",
"4 	c #F0F3F9",
"5 	c #F1F4F9",
"6 	c #F3F5F9",
"7 	c #F4F6FA",
"8 	c #F6F7FA",
"9 	c #E2E7EB",
"0 	c #808082",
"a 	c #686667",
"b 	c #6A6869",
"c 	c #3087B7",
"d 	c #2787BD",
"e 	c #2485BC",
"f 	c #2684B9",
"g 	c #2684BA",
"h 	c #676566",
"i 	c #5D5C5C",
"j 	c #5C595B",
"k 	c #7F7F82",
"l 	c #E0E6EC",
"m 	c #ECF1F8",
"n 	c #EFF3F8",
"o 	c #F0F4FA",
"p 	c #F2F6FA",
"q 	c #F3F7FB",
"r 	c #E7EBEF",
"s 	c #7F7F81",
"t 	c #656364",
"u 	c #6F6D6E",
"v 	c #2A8BC2",
"w 	c #2588BF",
"x 	c #2586BD",
"y 	c #2284BB",
"z 	c #2885BA",
"A 	c #2785BA",
"B 	c #2384BB",
"C 	c #2A8BC1",
"D 	c #646263",
"E 	c #5E5C5D",
"F 	c #605E5F",
"G 	c #7D7D7F",
"H 	c #E4E9ED",
"I 	c #F6F8FC",
"J 	c #F5F8FC",
"K 	c #F6F9FC",
"L 	c #F7FAFC",
"M 	c #F8FAFC",
"N 	c #F9FBFC",
"O 	c #F9FBFD",
"P 	c #F9FAFC",
"Q 	c #E6EAEE",
"R 	c #636162",
"S 	c #646363",
"T 	c #6C6B6B",
"U 	c #2F90C6",
"V 	c #288BC3",
"W 	c #278AC1",
"X 	c #2A87BC",
"Y 	c #2486BC",
"Z 	c #2587BE",
"` 	c #288BC4",
" .	c #2E8FC5",
"..	c #615F60",
"+.	c #7C7C7E",
"@.	c #FDFEFF",
"#.	c #FCFEFF",
"$.	c #FDFEFE",
"%.	c #FCFDFE",
"&.	c #FAFCFD",
"*.	c #F7F9FB",
"=.	c #F5F9FA",
"-.	c #E2E6EC",
";.	c #7B7B7D",
">.	c #626061",
",.	c #696768",
"'.	c #3799CF",
").	c #3395CD",
"!.	c #3193CA",
"~.	c #298CC4",
"{.	c #2689C1",
"].	c #2688BE",
"^.	c #3286B7",
"/.	c #3A8EBD",
"(.	c #2D8EC5",
"_.	c #2E90C7",
":.	c #298CC3",
"<.	c #298DC5",
"[.	c #2B8FC7",
"}.	c #3093C9",
"|.	c #5F5D5E",
"1.	c #797A7C",
"2.	c #E1E7EC",
"3.	c #EFF3F7",
"4.	c #EFF4F7",
"5.	c #EEF3F7",
"6.	c #ECF2F7",
"7.	c #ECF1F6",
"8.	c #EBF1F6",
"9.	c #E9EFF5",
"0.	c #E8EEF4",
"a.	c #E7EEF4",
"b.	c #DCE4E9",
"c.	c #79797B",
"d.	c #3C9DD3",
"e.	c #3599D2",
"f.	c #3598CF",
"g.	c #3698CF",
"h.	c #3697CD",
"i.	c #2C8EC5",
"j.	c #298BC2",
"k.	c #368CBB",
"l.	c #3F93C2",
"m.	c #3393C9",
"n.	c #3495CC",
"o.	c #3698CE",
"p.	c #3093CA",
"q.	c #2D92C9",
"r.	c #2E93CC",
"s.	c #3597CD",
"t.	c #5C5A5C",
"u.	c #5D5B5C",
"v.	c #5C5A5B",
"w.	c #777779",
"x.	c #DBE3E9",
"y.	c #EBF0F5",
"z.	c #EBF0F6",
"A.	c #EAF0F5",
"B.	c #EAEFF5",
"C.	c #E6ECF3",
"D.	c #E5ECF3",
"E.	c #E3EBF2",
"F.	c #D7DFE6",
"G.	c #767779",
"H.	c #3EA0D5",
"I.	c #379DD5",
"J.	c #399CD4",
"K.	c #3A9DD3",
"L.	c #3A9BD1",
"M.	c #399AD0",
"N.	c #3B9ACE",
"O.	c #3F94C4",
"P.	c #4498C8",
"Q.	c #3A99CE",
"R.	c #3C9DD2",
"S.	c #3196CE",
"T.	c #3297CF",
"U.	c #389BD1",
"V.	c #5A5859",
"W.	c #747577",
"X.	c #D7DEE6",
"Y.	c #E5ECF2",
"Z.	c #E5EBF2",
"`.	c #E4EBF2",
" +	c #E3EAF1",
".+	c #E2EAF1",
"++	c #E2E9F0",
"@+	c #E0E8F0",
"#+	c #DFE8F0",
"$+	c #DEE7EF",
"%+	c #D2DBE4",
"&+	c #747476",
"*+	c #5B595A",
"=+	c #3FA2D9",
"-+	c #3BA1D8",
";+	c #3CA1D7",
">+	c #3EA0D6",
",+	c #3F9FD5",
"'+	c #42A2D6",
")+	c #45A3D8",
"!+	c #55A5D0",
"~+	c #50A1CE",
"{+	c #44A2D6",
"]+	c #47A5D9",
"^+	c #48A7DB",
"/+	c #3B9ED3",
"(+	c #389DD3",
"_+	c #369CD4",
":+	c #3B9ED5",
"<+	c #585657",
"[+	c #575556",
"}+	c #717375",
"|+	c #D1DAE3",
"1+	c #D7E2ED",
"2+	c #D8E2ED",
"3+	c #D7E1EC",
"4+	c #D6E1EC",
"5+	c #D6E0EB",
"6+	c #D5E1EB",
"7+	c #D4DFEB",
"8+	c #D3DFEA",
"9+	c #D2DEEA",
"0+	c #CDD7E1",
"a+	c #717174",
"b+	c #595657",
"c+	c #5F5C5D",
"d+	c #43A6DD",
"e+	c #3EA3DB",
"f+	c #40A4DB",
"g+	c #42A5D9",
"h+	c #48A8DC",
"i+	c #4FACDF",
"j+	c #4FABDE",
"k+	c #5EB2E0",
"l+	c #5EA8D0",
"m+	c #5DA9D3",
"n+	c #55A1CD",
"o+	c #4D9BC8",
"p+	c #4998C4",
"q+	c #4192BF",
"r+	c #3D8EBC",
"s+	c #398BBA",
"t+	c #3688B7",
"u+	c #3486B5",
"v+	c #3689B7",
"w+	c #3C8EBB",
"x+	c #4191BF",
"y+	c #4495C1",
"z+	c #4898C4",
"A+	c #4C9AC7",
"B+	c #519FCB",
"C+	c #5AA7D2",
"D+	c #5EA7D0",
"E+	c #5CB2E0",
"F+	c #4EAADE",
"G+	c #4BAADF",
"H+	c #43A4DA",
"I+	c #40A3DA",
"J+	c #3AA1D8",
"K+	c #41A3DA",
"L+	c #565454",
"M+	c #555354",
"N+	c #CFDBE5",
"O+	c #D8E4F0",
"P+	c #D8E4EF",
"Q+	c #D8E3EF",
"R+	c #D7E3EE",
"S+	c #D6E2EE",
"T+	c #D6E2ED",
"U+	c #D5E2EE",
"V+	c #D5E1ED",
"W+	c #D4E1ED",
"X+	c #D3E0ED",
"Y+	c #D2DFEC",
"Z+	c #CBD8E3",
"`+	c #707073",
" @	c #575455",
".@	c #5D5A5B",
"+@	c #45A9DF",
"@@	c #3FA6DE",
"#@	c #42A7DE",
"$@	c #44A7DD",
"%@	c #4EADE2",
"&@	c #53B0E3",
"*@	c #53AFE2",
"=@	c #53AEE0",
"-@	c #52ADDE",
";@	c #51ABDD",
">@	c #50A9DB",
",@	c #4BA5D8",
"'@	c #3E9ACD",
")@	c #3B97CC",
"!@	c #3693C8",
"~@	c #2F8DC2",
"{@	c #2989BF",
"]@	c #2485BB",
"^@	c #2182B9",
"/@	c #2C83B5",
"(@	c #2A82B4",
"_@	c #2585BC",
":@	c #2C8BC1",
"<@	c #308FC4",
"[@	c #3592C7",
"}@	c #3996CA",
"|@	c #429DD0",
"1@	c #4BA5D7",
"2@	c #4EA8DA",
"3@	c #50AADC",
"4@	c #51ACDE",
"5@	c #52ADE0",
"6@	c #52AFE1",
"7@	c #52AEE2",
"8@	c #48A8DE",
"9@	c #45A8DD",
"0@	c #42A8DE",
"a@	c #3EA5DD",
"b@	c #535152",
"c@	c #5D5C5E",
"d@	c #90979D",
"e@	c #989FA6",
"f@	c #9CA3AB",
"g@	c #A0A7AF",
"h@	c #A2A9B1",
"i@	c #A3ABB2",
"j@	c #A4ADB4",
"k@	c #A5ADB5",
"l@	c #A1A9B1",
"m@	c #9EA7AF",
"n@	c #9BA3AB",
"o@	c #969EA7",
"p@	c #8E969D",
"q@	c #5C5C5D",
"r@	c #545253",
"s@	c #5A5858",
"t@	c #43ACE2",
"u@	c #41A9E2",
"v@	c #43A9E0",
"w@	c #46A9DF",
"x@	c #50B0E4",
"y@	c #55B3E7",
"z@	c #56B3E5",
"A@	c #57B2E4",
"B@	c #58B1E2",
"C@	c #56B0E1",
"D@	c #57AEDE",
"E@	c #55ACDD",
"F@	c #53ABDB",
"G@	c #459FD1",
"H@	c #409ACE",
"I@	c #3B97CB",
"J@	c #3793C7",
"K@	c #2686BC",
"L@	c #2F86B7",
"M@	c #2D85B7",
"N@	c #2A89BF",
"O@	c #318EC3",
"P@	c #3691C6",
"Q@	c #3A96CA",
"R@	c #429CCF",
"S@	c #4DA5D7",
"T@	c #51A9DA",
"U@	c #53ABDC",
"V@	c #55ADDF",
"W@	c #56AFDF",
"X@	c #57B0E1",
"Y@	c #56B2E3",
"Z@	c #56B1E4",
"`@	c #4DACE0",
" #	c #49ABE0",
".#	c #47ABE0",
"+#	c #44AAE1",
"@#	c #40A9E1",
"##	c #524F50",
"$#	c #514E4F",
"%#	c #4F4B4C",
"&#	c #4E4B4C",
"*#	c #4E4B4B",
"=#	c #4E4A4B",
"-#	c #47ADE4",
";#	c #43ACE3",
">#	c #46ACE2",
",#	c #4BADE2",
"'#	c #58B7EA",
")#	c #59B5E8",
"!#	c #5AB5E7",
"~#	c #5CB4E5",
"{#	c #5CB4E4",
"]#	c #5CB3E2",
"^#	c #5AB1E1",
"/#	c #59AFDF",
"(#	c #57ADDE",
"_#	c #4BA3D4",
":#	c #459ED0",
"<#	c #3F9ACD",
"[#	c #3B96CA",
"}#	c #3491C5",
"|#	c #2E8CC1",
"1#	c #2A89BE",
"2#	c #3389BA",
"3#	c #3088B9",
"4#	c #2988BE",
"5#	c #3995C8",
"6#	c #3F99CC",
"7#	c #49A2D4",
"8#	c #52AAD9",
"9#	c #55ABDB",
"0#	c #58AEDE",
"a#	c #59B0DF",
"b#	c #5AB2E2",
"c#	c #5BB3E3",
"d#	c #5BB4E4",
"e#	c #59B4E6",
"f#	c #4DADE1",
"g#	c #4AACE2",
"h#	c #47ACE3",
"i#	c #44ABE2",
"j#	c #47ADE3",
"k#	c #4F4C4E",
"l#	c #4F4D4E",
"m#	c #4F4C4D",
"n#	c #4E4C4D",
"o#	c #504D4E",
"p#	c #555253",
"q#	c #4FB1E5",
"r#	c #48ADE4",
"s#	c #54B4E8",
"t#	c #5AB8EA",
"u#	c #5CB7E9",
"v#	c #5EB8E7",
"w#	c #5FB7E7",
"x#	c #60B6E5",
"y#	c #5FB5E4",
"z#	c #5EB3E2",
"A#	c #5CB1E0",
"B#	c #5AAFDF",
"C#	c #4EA5D5",
"D#	c #49A1D2",
"E#	c #439DCF",
"F#	c #3D98CC",
"G#	c #3794C8",
"H#	c #308EC3",
"I#	c #368CBC",
"J#	c #348BBC",
"K#	c #3693C7",
"L#	c #3C97CB",
"M#	c #429DCF",
"N#	c #4EA6D7",
"O#	c #54ABDB",
"P#	c #58AEDD",
"Q#	c #5AB0DF",
"R#	c #5CB2E1",
"S#	c #5EB4E3",
"T#	c #5EB6E5",
"U#	c #5EB6E6",
"V#	c #5DB7E7",
"W#	c #54B1E3",
"X#	c #50B0E3",
"Y#	c #4EAFE4",
"Z#	c #4AAFE5",
"`#	c #51B1E5",
" $	c #4D4A4B",
".$	c #4D4B4C",
"+$	c #494647",
"@$	c #4B494A",
"#$	c #535051",
"$$	c #524F51",
"%$	c #514F50",
"&$	c #55B3E5",
"*$	c #56B7EA",
"=$	c #5CB9ED",
"-$	c #5FBAEA",
";$	c #61BAEA",
">$	c #63BAE9",
",$	c #63B8E7",
"'$	c #6BBCE7",
")$	c #70BDE8",
"!$	c #6FBCE7",
"~$	c #6BB9E4",
"{$	c #60AFDB",
"]$	c #5BACD9",
"^$	c #56A8D5",
"/$	c #50A4D2",
"($	c #4BA0CF",
"_$	c #459BCB",
":$	c #4097C8",
"<$	c #4495C2",
"[$	c #4394C2",
"}$	c #4098C8",
"|$	c #449BCC",
"1$	c #4A9ECE",
"2$	c #4FA3D1",
"3$	c #55A8D6",
"4$	c #61B2DD",
"5$	c #67B5E1",
"6$	c #6BB8E2",
"7$	c #6DBAE5",
"8$	c #6FBCE6",
"9$	c #6ABAE6",
"0$	c #61B7E6",
"a$	c #62B9E8",
"b$	c #60B9E8",
"c$	c #56B2E4",
"d$	c #53B1E5",
"e$	c #50B2E6",
"f$	c #57B4E6",
"g$	c #4A4748",
"h$	c #454243",
"i$	c #9E9E9E",
"j$	c #A6A6A6",
"k$	c #9D9C9C",
"l$	c #9C9C9C",
"m$	c #A2A2A2",
"n$	c #ABABAB",
"o$	c #AAA9AA",
"p$	c #ABAAAB",
"q$	c #ACACAC",
"r$	c #343333",
"s$	c #343132",
"t$	c #3C393A",
"u$	c #4B4849",
"v$	c #5EBAEB",
"w$	c #5DBBEC",
"x$	c #60BBEC",
"y$	c #63BCEB",
"z$	c #66BBE9",
"A$	c #67BBE9",
"B$	c #69BBE8",
"C$	c #7AB8DA",
"D$	c #77B6D9",
"E$	c #67B9E7",
"F$	c #65BAE7",
"G$	c #65BAE9",
"H$	c #60B8E7",
"I$	c #57B3E5",
"J$	c #54B4E6",
"K$	c #58B5E7",
"L$	c #454244",
"M$	c #454344",
"N$	c #403D3E",
"O$	c #B3B3B3",
"P$	c #797878",
"Q$	c #363333",
"R$	c #312F2F",
"S$	c #6F6E6E",
"T$	c #B9B9B9",
"U$	c #BABABA",
"V$	c #BCBCBC",
"W$	c #7E7C7D",
"X$	c #424040",
"Y$	c #413E3F",
"Z$	c #3E3B3C",
"`$	c #464344",
" %	c #68BFEE",
".%	c #61BCED",
"+%	c #65BDED",
"@%	c #68BCEB",
"#%	c #6ABDEA",
"$%	c #6CBDE9",
"%%	c #6EBEE9",
"&%	c #7ABCE1",
"*%	c #78BCE1",
"=%	c #6CBBE7",
"-%	c #6ABCE8",
";%	c #69BCE9",
">%	c #64BAE8",
",%	c #5EB6E7",
"'%	c #59B5E7",
")%	c #423E3F",
"!%	c #3C3839",
"~%	c #747273",
"{%	c #373435",
"]%	c #323031",
"^%	c #686767",
"/%	c #AEAEAE",
"(%	c #ADADAD",
"_%	c #AFAFAF",
":%	c #777676",
"<%	c #403E3E",
"[%	c #3F3C3D",
"}%	c #3B393A",
"|%	c #6CC0EE",
"1%	c #65BFED",
"2%	c #68BEEC",
"3%	c #6BBEEA",
"4%	c #6FC0EB",
"5%	c #6FBFE9",
"6%	c #69B9E4",
"7%	c #75B7DA",
"8%	c #79BBDE",
"9%	c #6CBBE6",
"0%	c #6EBDE8",
"a%	c #6DBDE9",
"b%	c #68BBE8",
"c%	c #5FB9E7",
"d%	c #65BAE8",
"e%	c #3D3A3B",
"f%	c #383435",
"g%	c #9D9D9D",
"h%	c #6D6B6C",
"i%	c #2E2B2C",
"j%	c #616060",
"k%	c #A7A7A7",
"l%	c #A8A8A8",
"m%	c #706F6F",
"n%	c #3D393A",
"o%	c #3B3839",
"p%	c #383536",
"q%	c #3F3B3C",
"r%	c #403C3D",
"s%	c #6BC0EE",
"t%	c #6BBEEB",
"u%	c #6CBDE8",
"v%	c #66B7E4",
"w%	c #62B5E2",
"x%	c #73B5D9",
"y%	c #71B3D8",
"z%	c #64B6E3",
"A%	c #67B9E5",
"B%	c #6BBBE7",
"C%	c #69BBE6",
"D%	c #66BAE7",
"E%	c #63BAE8",
"F%	c #65BBE9",
"G%	c #343031",
"H%	c #949494",
"I%	c #666565",
"J%	c #302D2E",
"K%	c #292627",
"L%	c #595859",
"M%	c #9B9B9B",
"N%	c #676666",
"O%	c #363233",
"P%	c #353233",
"Q%	c #6EC0EC",
"R%	c #66BCEA",
"S%	c #67BBE8",
"T%	c #67BAE6",
"U%	c #63B7E4",
"V%	c #67B5DF",
"W%	c #65B3DE",
"X%	c #5CB1DF",
"Y%	c #63B6E3",
"Z%	c #66B9E5",
"`%	c #6BBEE9",
" &	c #302C2D",
".&	c #8E8D8D",
"+&	c #585757",
"@&	c #121010",
"#&	c #0E0C0C",
"$&	c #4E4E4E",
"%&	c #919191",
"&&	c #909090",
"*&	c #939393",
"=&	c #5F5E5E",
"-&	c #2E2C2C",
";&	c #373334",
">&	c #63B9E7",
",&	c #5FB6E4",
"'&	c #6DB9E3",
")&	c #5EB4E2",
"!&	c #61B7E5",
"~&	c #61B8E6",
"{&	c #6ABDE8",
"]&	c #2C2829",
"^&	c #312D2E",
"/&	c #838383",
"(&	c #959595",
"_&	c #8B8B8B",
":&	c #898989",
"<&	c #8A8A8A",
"[&	c #595757",
"}&	c #292526",
"|&	c #2A2627",
"1&	c #2C292A",
"2&	c #2F2B2C",
"3&	c #64BAE7",
"4&	c #5EB7E6",
"5&	c #1F1D1D",
"6&	c #232021",
"7&	c #282526",
"8&	c #767676",
"9&	c #7F7F7F",
"0&	c #818181",
"a&	c #858585",
"b&	c #848484",
"c&	c #828282",
"d&	c #828181",
"e&	c #525151",
"f&	c #201D1E",
"g&	c #201D1D",
"h&	c #221F1F",
"i&	c #252122",
"j&	c #76BBDF",
"k&	c #6BBBE6",
"                                                                  . . . . . .                                                                                                                 ",
"      + @ # $ % & * = - ; > , ' ) ! ~ { ]                   . . .             . . .                                     ^ /                                           /                       ",
"    ( _ : < [ } | [ 1 2 3 4 5 6 7 8 9 0 a b               .                         .                                 c d e f                                       g e d                     ",
"  h i j k l m m m m [ 1 1 3 n o p q r s t h u           .                             .                               v w x y z                                   A B x w C                   ",
"  D E F G H I J J J I I K L M N O P Q G R S T         .                                 .                           U V W w x y z                               X Y Z w W `  .                ",
"  ......+.Q @.#.#.@.$.%.%.&.N M *.=.-.;...>.,.      .                                     .                       '.).!.~.{.w ].^.                              /.(.U _.:.<.[.}.              ",
"  |.|.E 1.2.3.4.4.3.5.5.6.7.8.9.0.a.b.c.E F h     .                                         .                   d.e.f.g.h.i.j.k.                                  l.m.n.o.p.q.r.s.            ",
"  t.u.v.w.x.y.z.z.y.A.B.9.0.a.C.D.E.F.G.v.u.D     .           .                 .           .                 H.I.J.K.L.M.N.O.                                      P.Q.L.R.f.S.T.U.          ",
"  V.V.V.W.X.Y.Z.Z.Z.`.`. +.+++@+#+$+%+&+V.*+..    .             .             .             .               =+-+;+>+,+'+)+!+                                          ~+{+]+^+/+(+_+:+        ",
"  <+<+[+}+|+1+2+1+1+3+3+4+5+6+7+8+9+0+a+[+b+c+  .                 .         .                 .           d+e+f+g+h+i+j+k+l+m+n+o+p+q+r+s+t+u+      u+v+w+x+y+z+A+B+C+D+E+F+i+G+H+I+J+K+      ",
"  L+L+M+a+N+O+P+P+Q+R+S+T+U+V+W+X+Y+Z+`+M+ @.@  .                   .     .                   .         +@@@#@$@%@&@*@=@-@;@>@,@'@)@!@~@{@]@^@/@  (@^@_@:@<@[@}@|@1@2@3@4@5@6@7@8@9@0@a@$@    ",
"  b@b@b@c@d@e@f@g@h@i@j@k@i@l@m@n@o@p@q@b@r@s@  .                     . .                     .       t@u@v@w@x@y@z@A@B@C@D@E@F@G@H@I@J@~@{@K@L@  M@K@N@O@P@Q@R@S@T@U@V@W@X@Y@Z@`@ #.#+#@#+#  ",
"  ######$#%#&#*#=#=#=#=#=#=#=#=#*#%#%#$##### @  .                     . .                     .       -#;#>#,#'#)#!#~#{#]#^#/#(#_#:#<#[#}#|#1#2#  3#4#|#}#5#6#7#8#9#0#a#b#c#d#e#6@f#g#h#i#j#  ",
"  k#l#k#k#k#l#m#m#n#n#n#n#n#n#n#m#m#m#l#k#o#p#  .                   .     .                   .         q#r#s#t#u#v#w#x#y#z#A#B#C#D#E#F#G#H#:@I#  J#:@H#K#L#M#N#O#P#Q#R#S#T#U#V#W#X#Y#Z#`#    ",
"   $ $ $ $.$+$+$@$m#$####$#$$$o#%$##m#&# $&###  .                 .         .                 .           &$*$=$-$;$>$,$'$)$!$~${$]$^$/$($_$:$<$  [$}$|$1$2$3$4$5$6$7$8$9$0$a$b$c$d$e$f$      ",
"  g$g$g$g$h$i$j$k$l$m$n$o$p$q$q$T r$s$t$u$u$m#    .             .             .             .               v$w$x$y$z$A$B$C$                                          D$E$F$G$H$I$J$K$        ",
"  L$M$L$h$N$O$P$Q$R$S$T$T$U$T$V$W$X$Y$Z$`$`$g$    .           .                 .           .                  %.%+%@%#%$%%%&%                                      *%=%-%;%>%,%'%H$          ",
"  )%)%)%)%!%j$~%{%]%^%/%(%(%q$_%:%<%[%}%Y$)%h$    .                                         .                   |%1%2%3%4%5%6%7%                                  8%9%0%a%b%a$c%d%            ",
"  e%e%e%e%f%g%h%s$i%j%k%j$j$j$l%m%n%o%p%q%h$r%      .                                     .                       s%2%t%u%9$v%w%x%                              y%z%A%B%C%D%E%F%              ",
"  p%p%p%p%G%H%I%J%K%L%g%M%M%M%l$N%O%P%s$!%t$n%        .                                 .                           Q%R%S%T%U%R#V%                              W%X%Y%Z%D%E%`%                ",
"    s$G%G% &.&+&@&#&$&%&&&&&%&*&=&-&-& &P%{%;&          .                             .                               `%>&,$,&'&                                  6$)&!&~&{&                  ",
"    ]& &^&]&/&(&g%g%H%_&:&<&_&_&[&}&|&1&^&^&2&            .                         .                                   3&4&6%                                      6%4&F$                    ",
"      5&6&7&8&9&0&/&a&a&b&c&d&9&e&f&g&h&6&i&                . . .             . . .                                     j&9%                                          k&                      ",
"                                                                  . . . . . .                                                                                                                 "};
