/* XPM */
//This is the image for an error. It is in this format so it can be embedded in the program.
//Once embedded it will load in place of any missing images.
static char * image_error_xpm[] = {
"24 24 308 2",
"  	c None",
". 	c #BEBDBD",
"+ 	c #4E5858",
"@ 	c #000000",
"# 	c #260000",
"$ 	c #370000",
"% 	c #360000",
"& 	c #250000",
"* 	c #BDBCBC",
"= 	c #C3C3C3",
"- 	c #420101",
"; 	c #AA0000",
"> 	c #E20000",
", 	c #F20000",
"' 	c #FF0000",
") 	c #F00000",
"! 	c #E10000",
"~ 	c #AB0000",
"{ 	c #430101",
"] 	c #C1C2C2",
"^ 	c #3A3F3F",
"/ 	c #330101",
"( 	c #AC0000",
"_ 	c #CE0200",
": 	c #E31C00",
"< 	c #EE2A00",
"[ 	c #F03000",
"} 	c #ED3200",
"| 	c #EA3000",
"1 	c #E62B00",
"2 	c #DF2200",
"3 	c #D61500",
"4 	c #CC0200",
"5 	c #340101",
"6 	c #393F3F",
"7 	c #0D1313",
"8 	c #5B0101",
"9 	c #BC0200",
"0 	c #E12400",
"a 	c #FB3F00",
"b 	c #F43900",
"c 	c #F03600",
"d 	c #ED3500",
"e 	c #E93200",
"f 	c #E53000",
"g 	c #E12E00",
"h 	c #DE2C00",
"i 	c #DA2A00",
"j 	c #D82B00",
"k 	c #C91700",
"l 	c #BA0200",
"m 	c #5C0101",
"n 	c #000606",
"o 	c #353B3B",
"p 	c #5C0001",
"q 	c #BC0D00",
"r 	c #FB3C00",
"s 	c #F83B00",
"t 	c #EF3800",
"u 	c #ED2700",
"v 	c #EE1F00",
"w 	c #EC1E00",
"x 	c #E52300",
"y 	c #D52900",
"z 	c #D32600",
"A 	c #CF2400",
"B 	c #CC2200",
"C 	c #B10700",
"D 	c #5D0101",
"E 	c #363C3C",
"F 	c #ABACAC",
"G 	c #380101",
"H 	c #BF1100",
"I 	c #FF3F00",
"J 	c #F33B00",
"K 	c #F32A00",
"L 	c #FB0D00",
"M 	c #F40900",
"N 	c #DA1B00",
"O 	c #C92300",
"P 	c #C82000",
"Q 	c #C51E00",
"R 	c #AF0800",
"S 	c #390101",
"T 	c #A30800",
"U 	c #FF4000",
"V 	c #F33A00",
"W 	c #F81500",
"X 	c #FE0000",
"Y 	c #FD0000",
"Z 	c #EA0C00",
"` 	c #C21D00",
" .	c #C01B00",
"..	c #BE1A00",
"+.	c #9A0400",
"@.	c #430000",
"#.	c #EF3400",
"$.	c #F43A00",
"%.	c #F80D00",
"&.	c #FB0000",
"*.	c #FA0000",
"=.	c #FB0404",
"-.	c #EE0600",
";.	c #BA1A00",
">.	c #B81700",
",.	c #B31200",
"'.	c #450000",
").	c #ACACAC",
"!.	c #A71300",
"~.	c #FC3D00",
"{.	c #F51900",
"].	c #F80000",
"^.	c #FDAEAE",
"/.	c #FFFFFF",
"(.	c #FECCCC",
"_.	c #F90000",
":.	c #FDC6C6",
"<.	c #FEDEDE",
"[.	c #F80606",
"}.	c #DC0A00",
"|.	c #B31500",
"1.	c #B21400",
"2.	c #910600",
"3.	c #060000",
"4.	c #E93000",
"5.	c #F13100",
"6.	c #F50000",
"7.	c #F60000",
"8.	c #F73131",
"9.	c #FEE0E0",
"0.	c #F50505",
"a.	c #F50101",
"b.	c #FDD6D6",
"c.	c #F84848",
"d.	c #B81100",
"e.	c #AD1100",
"f.	c #A90D00",
"g.	c #0B0000",
"h.	c #1F0100",
"i.	c #FB3A00",
"j.	c #F01A00",
"k.	c #F30000",
"l.	c #F11610",
"m.	c #FDDADA",
"n.	c #FDCCCC",
"o.	c #F01810",
"p.	c #D10800",
"q.	c #A91000",
"r.	c #AB0E00",
"s.	c #1C0000",
"t.	c #310900",
"u.	c #F83800",
"v.	c #EC3700",
"w.	c #EE0900",
"x.	c #EF0000",
"y.	c #E64631",
"z.	c #E63825",
"A.	c #E40200",
"B.	c #A20E00",
"C.	c #A70C00",
"D.	c #240400",
"E.	c #340C00",
"F.	c #F53600",
"G.	c #E83600",
"H.	c #EC0000",
"I.	c #ED0000",
"J.	c #E04635",
"K.	c #E03929",
"L.	c #9C0C00",
"M.	c #A40A00",
"N.	c #240200",
"O.	c #2E0A00",
"P.	c #F13400",
"Q.	c #E53400",
"R.	c #E80000",
"S.	c #E70000",
"T.	c #F7DED9",
"U.	c #F9E4E0",
"V.	c #E80708",
"W.	c #E90000",
"X.	c #980B00",
"Y.	c #A00700",
"Z.	c #1E0100",
"`.	c #150400",
" +	c #EA3100",
".+	c #E13100",
"++	c #E30600",
"@+	c #E30000",
"#+	c #E30303",
"$+	c #FCE4E4",
"%+	c #FDECEC",
"&+	c #E40B0B",
"*+	c #DA0100",
"=+	c #970800",
"-+	c #9A0500",
";+	c #0E0000",
">+	c #D32B00",
",+	c #DD1300",
"'+	c #DF0000",
")+	c #DF0202",
"!+	c #FBE3E3",
"~+	c #F8EEEC",
"{+	c #FCEBEB",
"]+	c #C00300",
"^+	c #960500",
"/+	c #8B0200",
"(+	c #6C1500",
"_+	c #DC2A00",
":+	c #D72200",
"<+	c #DA0000",
"[+	c #E44747",
"}+	c #C61E19",
"|+	c #C62923",
"1+	c #E13636",
"2+	c #DC0000",
"3+	c #A10400",
"4+	c #950300",
"5+	c #460100",
"6+	c #D52800",
"7+	c #D22700",
"8+	c #D30C00",
"9+	c #D50000",
"0+	c #CE1312",
"a+	c #BE1916",
"b+	c #D70001",
"c+	c #D70000",
"d+	c #BD2320",
"e+	c #F4ECEB",
"f+	c #CE0201",
"g+	c #BF0100",
"h+	c #910300",
"i+	c #8E0100",
"j+	c #AAABAC",
"k+	c #4F0F01",
"l+	c #D82500",
"m+	c #CB2300",
"n+	c #CF0400",
"o+	c #D20000",
"p+	c #B11514",
"q+	c #C26868",
"r+	c #B50A0A",
"s+	c #CF0000",
"t+	c #D00000",
"u+	c #B20909",
"v+	c #BB4D4D",
"w+	c #B40000",
"x+	c #C80000",
"y+	c #960100",
"z+	c #350101",
"A+	c #ACADAD",
"B+	c #343B3C",
"C+	c #781401",
"D+	c #CB2000",
"E+	c #C31D00",
"F+	c #C80600",
"G+	c #CC0000",
"H+	c #CB0000",
"I+	c #CA0000",
"J+	c #CD0000",
"K+	c #BE0100",
"L+	c #930300",
"M+	c #920100",
"N+	c #530101",
"O+	c #6C1101",
"P+	c #CA1C00",
"Q+	c #BC1A00",
"R+	c #BC0F00",
"S+	c #C20300",
"T+	c #C50000",
"U+	c #C40000",
"V+	c #C60000",
"W+	c #A50300",
"X+	c #920300",
"Y+	c #970100",
"Z+	c #4D0101",
"`+	c #1B2020",
" @	c #383E3F",
".@	c #370801",
"+@	c #AC1500",
"@@	c #BA1500",
"#@	c #B01400",
"$@	c #AF1000",
"%@	c #B20900",
"&@	c #B20600",
"*@	c #B00500",
"=@	c #AB0600",
"-@	c #9F0600",
";@	c #940600",
">@	c #980300",
",@	c #850100",
"'@	c #290101",
")@	c #3C4040",
"!@	c #C0C0C0",
"~@	c #3D0801",
"{@	c #8D0E00",
"]@	c #AD1000",
"^@	c #780200",
"/@	c #310101",
"(@	c #C5C5C5",
"_@	c #BBBABA",
":@	c #4F5757",
"<@	c #010000",
"[@	c #1B0200",
"}@	c #230200",
"|@	c #220100",
"1@	c #190100",
"2@	c #525859",
"3@	c #BEBEBE",
"              . + @ # $ % & @ + *               ",
"          = @ - ; > , ' ' ) ! ~ { @ ]           ",
"        ^ / ( _ : < [ } | 1 2 3 4 ( 5 6         ",
"      7 8 9 0 a b c d e f g h i j k l m n       ",
"    o p q r s b t d u v w x i y z A B C D E     ",
"  F G H I s J K L ' ' ' ' ' ' M N O P Q R S F   ",
"  @ T U s V W X Y Y Y Y Y Y Y Y ' Z `  ...+.@   ",
"F @.#.s $.%.&.&.*.&.&.&.&.&.&.=.*.&.-.;.>.,.'.).",
"@ !.~.$.{.].].^./.(.].]._.].:./.<.[.*.}.|.1.2.@ ",
"3.4.b 5.6.7.8./././.9.0.a.b./././.c.6.].d.e.f.g.",
"h.i.c j.k.k.l././././.m.n././././.o.k.k.p.q.r.s.",
"t.u.v.w.x.x.) y././././././././.z.) ) x.A.B.C.D.",
"E.F.G.H.H.H.H.I.J././././././.K.I.H.H.H.I.L.M.N.",
"O.P.Q.R.S.S.R.S.R.T././././.U.V.S.S.R.S.W.X.Y.Z.",
"`. +.+++@+@+@+#+$+/./././././.%+&+@+@+@+*+=+-+;+",
"@ >+h ,+'+'+)+!+/././.~+/./././.{+)+'+'+]+^+/+@ ",
"F (+_+:+<+<+[+/./././.}+|+/./././.1+<+2+3+4+5+).",
"  @ 6+7+8+9+0+/././.a+b+c+d+/./.e+f+9+g+h+i+@   ",
"  j+k+l+m+n+o+p+q+r+o+s+t+o+u+v+w+o+x+h+y+z+A+  ",
"    B+C+D+E+F+G+G+H+I+I+I+I+H+J+G+K+L+M+N+E     ",
"      @ O+P+Q+R+S+T+U+U+U+U+V+K+W+X+Y+Z+`+      ",
"         @.@+@@@#@$@%@&@*@=@-@;@>@,@'@)@        ",
"          !@@ ~@{@]@r.C.M.Y.-+^@/@@ (@          ",
"              _@:@<@[@}@|@1@@ 2@3@              "};
